<?xml version="1.0" encoding="utf-8"?>
<!-- Generator: Adobe Illustrator 16.0.0, SVG Export Plug-In . SVG Version: 6.00 Build 0)  -->
<!DOCTYPE svg PUBLIC "-//W3C//DTD SVG 1.1//EN" "http://www.w3.org/Graphics/SVG/1.1/DTD/svg11.dtd">
<svg version="1.1" id="Layer_1" xmlns="http://www.w3.org/2000/svg" xmlns:xlink="http://www.w3.org/1999/xlink" x="0px" y="0px"
	 width="512px" height="512px" viewBox="0 0 512 512" enable-background="new 0 0 512 512" xml:space="preserve">
<path id="email-10-icon" fill="#FFFFFF" d="M256,49.708c55.103,0,106.908,21.458,145.87,60.42
	c38.966,38.964,60.422,90.768,60.422,145.871c0,55.103-21.457,106.904-60.422,145.87c-38.962,38.963-90.768,60.421-145.87,60.421
	s-106.905-21.458-145.87-60.421C71.167,362.904,49.709,311.103,49.709,256c0-55.103,21.458-106.906,60.421-145.871
	C149.093,71.166,200.897,49.708,256,49.708 M256,0C114.615,0,0,114.615,0,256c0,141.385,114.615,256,256,256
	c141.385,0,256-114.615,256-256C512,114.615,397.385,0,256,0L256,0z M203.082,246.5l-76.399-58.687v135.084L203.082,246.5z
	 M387.123,160.532H127.582l129.668,99.606L387.123,160.532z M293.595,260.22l-36.356,27.884l-36.416-27.971L127,353.957h260.331
	L293.595,260.22z M311.347,246.603l76.455,76.455V187.965L311.347,246.603z"/>
</svg>
