<?xml version="1.0" encoding="utf-8"?>
<!-- Generator: Adobe Illustrator 16.0.0, SVG Export Plug-In . SVG Version: 6.00 Build 0)  -->
<!DOCTYPE svg PUBLIC "-//W3C//DTD SVG 1.1//EN" "http://www.w3.org/Graphics/SVG/1.1/DTD/svg11.dtd">
<svg version="1.1" id="Layer_1" xmlns="http://www.w3.org/2000/svg" xmlns:xlink="http://www.w3.org/1999/xlink" x="0px" y="0px"
	 width="512px" height="512px" viewBox="0 0 512 512" enable-background="new 0 0 512 512" xml:space="preserve">
<path id="github-5-icon" fill="#FFFFFF" d="M256,49.709c114.01,0,206.291,92.265,206.291,206.291
	c0,114.009-92.265,206.291-206.291,206.291c-114.011,0-206.291-92.265-206.291-206.291C49.709,141.991,141.974,49.709,256,49.709z
	 M256,0C114.615,0,0,114.615,0,256c0,141.387,114.615,256,256,256c141.387,0,256-114.613,256-256C512,114.615,397.387,0,256,0z
	 M256.001,114.431c-80.162,0-145.152,64.991-145.152,145.151c0,64.129,41.59,118.549,99.271,137.734
	c7.252,1.346,9.59-3.143,9.59-6.98v-27.027c-40.371,8.785-48.786-17.116-48.786-17.116c-6.59-16.784-16.112-21.253-16.112-21.253
	c-13.17-9,0.993-8.822,0.993-8.822c14.58,1.029,22.257,14.965,22.257,14.965c12.944,22.186,33.947,15.771,42.24,12.061
	c1.299-9.38,5.055-15.781,9.214-19.406c-32.248-3.66-66.126-16.113-66.126-71.738c0-15.854,5.669-28.799,14.956-38.958
	c-1.515-3.662-6.476-18.429,1.393-38.414c0,0,12.192-3.898,39.924,14.884c11.588-3.214,24.003-4.832,36.338-4.891
	c12.332,0.06,24.77,1.677,36.357,4.891c27.713-18.782,39.879-14.884,39.879-14.884c7.902,19.987,2.928,34.752,1.428,38.414
	c9.309,10.159,14.945,23.104,14.945,38.958c0,55.753-33.961,68.029-66.281,71.62c5.199,4.5,9.959,13.345,9.959,26.884
	c0,19.42,0,35.061,0,39.834c0,3.862,2.326,8.385,9.686,6.967c57.646-19.219,99.178-73.604,99.178-137.721
	C401.151,179.422,336.159,114.431,256.001,114.431z"/>
</svg>
