<?xml version="1.0" encoding="utf-8"?>
<!-- Generator: Adobe Illustrator 16.0.0, SVG Export Plug-In . SVG Version: 6.00 Build 0)  -->
<!DOCTYPE svg PUBLIC "-//W3C//DTD SVG 1.1//EN" "http://www.w3.org/Graphics/SVG/1.1/DTD/svg11.dtd">
<svg version="1.1" id="Layer_1" xmlns="http://www.w3.org/2000/svg" xmlns:xlink="http://www.w3.org/1999/xlink" x="0px" y="0px"
	 width="512px" height="512px" viewBox="0 0 512 512" enable-background="new 0 0 512 512" xml:space="preserve">
<path id="linkedin-circle-outline-icon" fill="#FFFFFF" d="M256,49.709c55.102,0,106.906,21.458,145.87,60.421
	c38.965,38.964,60.421,90.768,60.421,145.87c0,55.103-21.457,106.905-60.421,145.87c-38.964,38.964-90.769,60.421-145.87,60.421
	c-55.102,0-106.906-21.459-145.87-60.421C71.166,362.905,49.709,311.103,49.709,256c0-55.102,21.458-106.906,60.421-145.87
	C149.094,71.167,200.898,49.709,256,49.709 M256,0C114.615,0,0,114.615,0,256c0,141.386,114.615,256,256,256
	c141.385,0,256-114.614,256-256C512,114.615,397.385,0,256,0L256,0z M203.01,156.291c0,15.729-12.649,28.48-28.25,28.48
	c-15.604,0-28.251-12.752-28.251-28.48c0-15.731,12.648-28.481,28.251-28.481S203.01,140.56,203.01,156.291z M198.875,204.985
	h-47.774v154.353h47.774V204.985z M275.246,204.985h-45.823v154.353h45.823c0,0,0-57.252,0-81.023
	c0-21.707,9.99-34.626,29.114-34.626c17.571,0,26.012,12.405,26.012,34.626c0,22.222,0,81.023,0,81.023h47.547
	c0,0,0-56.391,0-97.736c0-41.342-23.431-61.326-56.159-61.326c-32.729,0-46.514,25.497-46.514,25.497V204.985L275.246,204.985z"/>
</svg>
